<svg xmlns="http://www.w3.org/2000/svg" width="263.6678466796875" height="191.99526977539062" viewBox="-40.77489471435547 3.8651657104492188 263.6678466796875 191.99526977539062"><title>Neo4j Graph Visualization</title><desc>Created using Neo4j (http://www.neo4j.com/)</desc><g class="layer relationships"><g class="relationship" transform="translate(193.89293989123246 164.75931229467977) rotate(212.73035118033965)"><path class="outline" fill="#A5ABB6" stroke="none" d="M 25 0.5 L 36.72662174257727 0.5 L 36.72662174257727 -0.5 L 25 -0.5 Z M 78.72662174257727 0.5 L 90.45324348515454 0.5 L 90.45324348515454 3.5 L 97.45324348515454 0 L 90.45324348515454 -3.5 L 90.45324348515454 -0.5 L 78.72662174257727 -0.5 Z"/><text text-anchor="middle" pointer-events="none" font-size="8px" fill="#000000" x="57.72662174257727" y="3" transform="rotate(180 57.72662174257727 0)" font-family="sans-serif">CHILD_IN</text></g><g class="relationship" transform="translate(192.46042201744643 32.8651672920312) rotate(507.11131934168895)"><path class="outline" fill="#A5ABB6" stroke="none" d="M 25 0.5 L 37.982829278251835 0.5 L 37.982829278251835 -0.5 L 25 -0.5 Z M 75.98282927825184 0.5 L 88.96565855650367 0.5 L 88.96565855650367 3.5 L 95.96565855650367 0 L 88.96565855650367 -3.5 L 88.96565855650367 -0.5 L 75.98282927825184 -0.5 Z"/><text text-anchor="middle" pointer-events="none" font-size="8px" fill="#000000" x="56.982829278251835" y="3" transform="rotate(180 56.982829278251835 0)" font-family="sans-serif">WIFE_IN</text></g><g class="relationship" transform="translate(-11.774893660931376 36.594455541475) rotate(391.11200404273825)"><path class="outline" fill="#A5ABB6" stroke="none" d="M 25 0.5 L 35.452173261618384 0.5 L 35.452173261618384 -0.5 L 25 -0.5 Z M 77.45217326161838 0.5 L 87.90434652323677 0.5 L 87.90434652323677 3.5 L 94.90434652323677 0 L 87.90434652323677 -3.5 L 87.90434652323677 -0.5 L 77.45217326161838 -0.5 Z"/><text text-anchor="middle" pointer-events="none" font-size="8px" fill="#000000" x="56.452173261618384" y="3" font-family="sans-serif">CHILD_IN</text></g><g class="relationship" transform="translate(-6.406087276580777 166.8604449511618) rotate(324.92583522589405)"><path class="outline" fill="#A5ABB6" stroke="none" d="M 25 0.5 L 27.437500933055283 0.5 L 27.437500933055283 -0.5 L 25 -0.5 Z M 84.43750093305528 0.5 L 86.87500186611057 0.5 L 86.87500186611057 3.5 L 93.87500186611057 0 L 86.87500186611057 -3.5 L 86.87500186611057 -0.5 L 84.43750093305528 -0.5 Z"/><text text-anchor="middle" pointer-events="none" font-size="8px" fill="#000000" x="55.93750093305528" y="3" font-family="sans-serif">HUSBAND_IN</text></g><g class="relationship" transform="translate(192.46042201744643 32.8651672920312) rotate(449.37772824495835)"><path class="outline" fill="#A5ABB6" stroke="none" d="M 25 0.5 L 34.4509620730403 0.5 L 34.4509620730403 -0.5 L 25 -0.5 Z M 90.4509620730403 0.5 L 99.9019241460806 0.5 L 99.9019241460806 3.5 L 106.9019241460806 0 L 99.9019241460806 -3.5 L 99.9019241460806 -0.5 L 90.4509620730403 -0.5 Z"/><text text-anchor="middle" pointer-events="none" font-size="8px" fill="#000000" x="62.4509620730403" y="3" font-family="sans-serif">MOTHER_OF</text></g><g class="relationship" transform="translate(-6.406087276580777 166.8604449511618) rotate(359.3989905010478)"><path class="outline" fill="#A5ABB6" stroke="none" d="M 25 0.5 L 71.15502364186796 0.5 L 71.15502364186796 -0.5 L 25 -0.5 Z M 122.15502364186796 0.5 L 168.3100472837359 0.5 L 168.3100472837359 3.5 L 175.3100472837359 0 L 168.3100472837359 -3.5 L 168.3100472837359 -0.5 L 122.15502364186796 -0.5 Z"/><text text-anchor="middle" pointer-events="none" font-size="8px" fill="#000000" x="96.65502364186796" y="3" font-family="sans-serif">FATHER_OF</text></g><g class="relationship" transform="translate(192.46042201744643 32.8651672920312) rotate(538.9539089562472)"><path class="outline" fill="#A5ABB6" stroke="none" d="M 25 0.5 L 70.63468039933116 0.5 L 70.63468039933116 -0.5 L 25 -0.5 Z M 126.63468039933116 0.5 L 172.26936079866232 0.5 L 172.26936079866232 3.5 L 179.26936079866232 0 L 172.26936079866232 -3.5 L 172.26936079866232 -0.5 L 126.63468039933116 -0.5 Z"/><text text-anchor="middle" pointer-events="none" font-size="8px" fill="#000000" x="98.63468039933116" y="3" transform="rotate(180 98.63468039933116 0)" font-family="sans-serif">MOTHER_OF</text></g><g class="relationship" transform="translate(-6.406087276580777 166.8604449511618) rotate(267.6399369024431)"><path class="outline" fill="#A5ABB6" stroke="none" d="M 25 0.5 L 36.188288976773435 0.5 L 36.188288976773435 -0.5 L 25 -0.5 Z M 87.18828897677344 0.5 L 98.37657795354687 0.5 L 98.37657795354687 3.5 L 105.37657795354687 0 L 98.37657795354687 -3.5 L 98.37657795354687 -0.5 L 87.18828897677344 -0.5 Z"/><text text-anchor="middle" pointer-events="none" font-size="8px" fill="#000000" x="61.688288976773435" y="3" transform="rotate(180 61.688288976773435 0)" font-family="sans-serif">FATHER_OF</text></g></g><g class="layer nodes"><g class="node" transform="translate(90.88227339368925,98.55055586649671)"><circle class="outline" cx="0" cy="0" r="25" fill="#6DCE9E" stroke="#60B58B" stroke-width="2px"/><text text-anchor="middle" pointer-events="none" y="5" font-size="10px" fill="#FFFFFF" font-family="sans-serif"> @F209…</text></g><g class="node" transform="translate(193.89293989123246,164.75931229467977)"><circle class="outline" cx="0" cy="0" r="25" fill="#68BDF6" stroke="#5CA8DB" stroke-width="2px"/><text text-anchor="middle" pointer-events="none" y="0" font-size="10px" fill="#FFFFFF" font-family="sans-serif"> Maja</text><text text-anchor="middle" pointer-events="none" y="10" font-size="10px" fill="#FFFFFF" font-family="sans-serif"> /Einste…</text></g><g class="node" transform="translate(192.46042201744643,32.8651672920312)"><circle class="outline" cx="0" cy="0" r="25" fill="#68BDF6" stroke="#5CA8DB" stroke-width="2px"/><text text-anchor="middle" pointer-events="none" y="0" font-size="10px" fill="#FFFFFF" font-family="sans-serif"> Pauline</text><text text-anchor="middle" pointer-events="none" y="10" font-size="10px" fill="#FFFFFF" font-family="sans-serif"> /Koch/</text></g><g class="node" transform="translate(-11.774893660931376,36.594455541475)"><circle class="outline" cx="0" cy="0" r="25" fill="#68BDF6" stroke="#5CA8DB" stroke-width="2px"/><text text-anchor="middle" pointer-events="none" y="0" font-size="10px" fill="#FFFFFF" font-family="sans-serif"> Albert</text><text text-anchor="middle" pointer-events="none" y="10" font-size="10px" fill="#FFFFFF" font-family="sans-serif"> /Einste…</text></g><g class="node" transform="translate(-6.406087276580777,166.8604449511618)"><circle class="outline" cx="0" cy="0" r="25" fill="#68BDF6" stroke="#5CA8DB" stroke-width="2px"/><text text-anchor="middle" pointer-events="none" y="5" font-size="10px" fill="#FFFFFF" font-family="sans-serif"> Herma…</text></g></g></svg>